# xmcd CD database file
#
# Track frame offsets:
#	183
#	16250
#	37133
#	53880
#	90698
#	103115
#	121675
#	132885
#	145520
#	163498
#	178193
#	189508
#	208930
#	233940
#	255108
#	270738
#	284765
#	295538
#	307978
#	322060
#
# Disc length: 4486 seconds
#
# Revision: 3
# Processed by: cddbd v1.5.2PL0 Copyright (c) Steve Scherf et al.
# Submitted via: CDex 1.99.1
#
DISCID=2a118414
DTITLE=Various Artist - Blues Power Volume 1
DYEAR=1900
DGENRE=Blues
TTITLE0=A. C. Reed I - ain't too bad
TTITLE1=Magic Slim - Spider in my Stew
TTITLE2=Dana Gillespie - My man stands out
TTITLE3=Howling Wolf - Going down slow
TTITLE4=Big Joe Tuner - Shake, Rattle and roll
TTITLE5=Pinetop Perkings - Driving Wheel
TTITLE6=Rudt Richard - Big Mamou
TTITLE7=Micheal Coleman - breakfast In My Bed
TTITLE8=Charles Brown - Driftin' Blues
TTITLE9=Bonnie Lee - I'm Good
TTITLE10=Homestick James and Snooky Pryor - Homestick's Crossroads
TTITLE11=Eddie Taylor - Bad Boy
TTITLE12=Hound Dog Taylor - Gonna Send You Back To Georgia
TTITLE13=Willie Kent - One More Mile
TTITLE14=John Littl John - Bloody Tears
TTITLE15=Willie Dixon - 29 Ways
TTITLE16=James Cotton - Dealin' With The Devil
TTITLE17=Jimmy Rogers - Chicago Bound
TTITLE18=Otis Rush - I Can't Quit You Baby
TTITLE19=Muddy Watters - Rock Me Baby
EXTD=
EXTT0=
EXTT1=
EXTT2=
EXTT3=
EXTT4=
EXTT5=
EXTT6=
EXTT7=
EXTT8=
EXTT9=
EXTT10=
EXTT11=
EXTT12=
EXTT13=
EXTT14=
EXTT15=
EXTT16=
EXTT17=
EXTT18=
EXTT19=
PLAYORDER=
